<mxfile host="app.diagrams.net" agent="Mozilla/5.0 (Windows NT 10.0; Win64; x64) AppleWebKit/537.36 (KHTML, like Gecko) Chrome/134.0.0.0 Safari/537.36" version="26.0.16">
  <diagram name="第 1 页" id="6V90CmrYwFfe7awPPy1f">
    <mxGraphModel dx="1921" dy="679" grid="1" gridSize="10" guides="1" tooltips="1" connect="1" arrows="1" fold="1" page="1" pageScale="1" pageWidth="827" pageHeight="1169" math="0" shadow="0">
      <root>
        <mxCell id="0" />
        <mxCell id="1" parent="0" />
        <mxCell id="416kvSQ-KiKdowSzH4s3-1" value="Container 1&lt;br&gt;Java" style="rounded=1;whiteSpace=wrap;html=1;" parent="1" vertex="1">
          <mxGeometry x="90" y="620" width="120" height="60" as="geometry" />
        </mxCell>
        <mxCell id="416kvSQ-KiKdowSzH4s3-2" value="Container 2&lt;br&gt;&lt;div&gt;Python&lt;/div&gt;" style="rounded=1;whiteSpace=wrap;html=1;" parent="1" vertex="1">
          <mxGeometry x="610" y="620" width="120" height="60" as="geometry" />
        </mxCell>
        <mxCell id="416kvSQ-KiKdowSzH4s3-8" value="" style="rounded=0;whiteSpace=wrap;html=1;" parent="1" vertex="1">
          <mxGeometry x="250" y="560" width="340" height="300" as="geometry" />
        </mxCell>
        <mxCell id="416kvSQ-KiKdowSzH4s3-9" value="註冊代理&lt;div&gt;Istio Istiod&lt;/div&gt;" style="rounded=0;whiteSpace=wrap;html=1;" parent="1" vertex="1">
          <mxGeometry x="362" y="635" width="116" height="30" as="geometry" />
        </mxCell>
        <mxCell id="416kvSQ-KiKdowSzH4s3-10" value="調用代理&lt;div&gt;Istio waypoint&lt;/div&gt;" style="rounded=0;whiteSpace=wrap;html=1;" parent="1" vertex="1">
          <mxGeometry x="360" y="730" width="118" height="30" as="geometry" />
        </mxCell>
        <mxCell id="416kvSQ-KiKdowSzH4s3-11" value="註冊中心&lt;br&gt;Nacos" style="whiteSpace=wrap;html=1;aspect=fixed;" parent="1" vertex="1">
          <mxGeometry x="334" y="460" width="60" height="60" as="geometry" />
        </mxCell>
        <mxCell id="416kvSQ-KiKdowSzH4s3-12" value="" style="endArrow=classic;html=1;rounded=0;entryX=0;entryY=0.5;entryDx=0;entryDy=0;exitX=1;exitY=0.5;exitDx=0;exitDy=0;" parent="1" source="416kvSQ-KiKdowSzH4s3-1" target="416kvSQ-KiKdowSzH4s3-9" edge="1">
          <mxGeometry width="50" height="50" relative="1" as="geometry">
            <mxPoint x="190" y="570" as="sourcePoint" />
            <mxPoint x="240" y="520" as="targetPoint" />
          </mxGeometry>
        </mxCell>
        <mxCell id="416kvSQ-KiKdowSzH4s3-13" value="" style="endArrow=classic;html=1;rounded=0;entryX=0.5;entryY=1;entryDx=0;entryDy=0;exitX=0.5;exitY=0;exitDx=0;exitDy=0;" parent="1" source="416kvSQ-KiKdowSzH4s3-9" target="416kvSQ-KiKdowSzH4s3-11" edge="1">
          <mxGeometry width="50" height="50" relative="1" as="geometry">
            <mxPoint x="220" y="660" as="sourcePoint" />
            <mxPoint x="372" y="660" as="targetPoint" />
          </mxGeometry>
        </mxCell>
        <mxCell id="416kvSQ-KiKdowSzH4s3-14" value="" style="endArrow=classic;html=1;rounded=0;entryX=1;entryY=0.5;entryDx=0;entryDy=0;exitX=0;exitY=0.5;exitDx=0;exitDy=0;" parent="1" source="416kvSQ-KiKdowSzH4s3-2" target="416kvSQ-KiKdowSzH4s3-9" edge="1">
          <mxGeometry width="50" height="50" relative="1" as="geometry">
            <mxPoint x="220" y="660" as="sourcePoint" />
            <mxPoint x="372" y="660" as="targetPoint" />
          </mxGeometry>
        </mxCell>
        <mxCell id="416kvSQ-KiKdowSzH4s3-16" value="Metadata&lt;br&gt;標準" style="shape=note;whiteSpace=wrap;html=1;backgroundOutline=1;darkOpacity=0.05;size=11;fillColor=#fff2cc;strokeColor=#d6b656;" parent="1" vertex="1">
          <mxGeometry x="220" y="620" width="90" height="45" as="geometry" />
        </mxCell>
        <mxCell id="416kvSQ-KiKdowSzH4s3-17" value="Metadata&lt;br&gt;標準" style="shape=note;whiteSpace=wrap;html=1;backgroundOutline=1;darkOpacity=0.05;size=11;fillColor=#fff2cc;strokeColor=#d6b656;" parent="1" vertex="1">
          <mxGeometry x="510" y="620" width="90" height="45" as="geometry" />
        </mxCell>
        <mxCell id="416kvSQ-KiKdowSzH4s3-19" value="Http Client" style="rounded=0;whiteSpace=wrap;html=1;fillColor=#dae8fc;strokeColor=#6c8ebf;" parent="1" vertex="1">
          <mxGeometry x="110" y="670" width="70" height="30" as="geometry" />
        </mxCell>
        <mxCell id="416kvSQ-KiKdowSzH4s3-20" value="Http Client" style="rounded=0;whiteSpace=wrap;html=1;fillColor=#dae8fc;strokeColor=#6c8ebf;" parent="1" vertex="1">
          <mxGeometry x="640" y="670" width="70" height="30" as="geometry" />
        </mxCell>
        <mxCell id="416kvSQ-KiKdowSzH4s3-21" value="" style="endArrow=classic;html=1;rounded=0;exitX=0.5;exitY=1;exitDx=0;exitDy=0;entryX=0;entryY=0.5;entryDx=0;entryDy=0;" parent="1" source="416kvSQ-KiKdowSzH4s3-19" target="416kvSQ-KiKdowSzH4s3-10" edge="1">
          <mxGeometry width="50" height="50" relative="1" as="geometry">
            <mxPoint x="158" y="730" as="sourcePoint" />
            <mxPoint x="90" y="780" as="targetPoint" />
            <Array as="points">
              <mxPoint x="145" y="745" />
            </Array>
          </mxGeometry>
        </mxCell>
        <mxCell id="416kvSQ-KiKdowSzH4s3-22" value="HTTP&lt;br&gt;通信標準" style="shape=note;whiteSpace=wrap;html=1;backgroundOutline=1;darkOpacity=0.05;size=11;fillColor=#fff2cc;strokeColor=#d6b656;" parent="1" vertex="1">
          <mxGeometry x="220" y="730" width="90" height="45" as="geometry" />
        </mxCell>
        <mxCell id="416kvSQ-KiKdowSzH4s3-24" value="Http Entry" style="rounded=0;whiteSpace=wrap;html=1;fillColor=#d5e8d4;strokeColor=#82b366;" parent="1" vertex="1">
          <mxGeometry x="30" y="635" width="70" height="30" as="geometry" />
        </mxCell>
        <mxCell id="416kvSQ-KiKdowSzH4s3-25" value="Http Entry" style="rounded=0;whiteSpace=wrap;html=1;fillColor=#d5e8d4;strokeColor=#82b366;" parent="1" vertex="1">
          <mxGeometry x="720" y="635" width="70" height="30" as="geometry" />
        </mxCell>
        <mxCell id="416kvSQ-KiKdowSzH4s3-27" value="" style="endArrow=classic;html=1;rounded=0;entryX=0.5;entryY=1;entryDx=0;entryDy=0;strokeColor=light-dark(#ee7c3f, #ededed);strokeWidth=3;exitX=0.5;exitY=1;exitDx=0;exitDy=0;" parent="1" source="416kvSQ-KiKdowSzH4s3-10" target="416kvSQ-KiKdowSzH4s3-25" edge="1">
          <mxGeometry width="50" height="50" relative="1" as="geometry">
            <mxPoint x="400" y="910" as="sourcePoint" />
            <mxPoint x="663" y="835" as="targetPoint" />
            <Array as="points">
              <mxPoint x="418" y="830" />
              <mxPoint x="755" y="830" />
            </Array>
          </mxGeometry>
        </mxCell>
        <mxCell id="416kvSQ-KiKdowSzH4s3-33" value="" style="endArrow=classic;html=1;rounded=0;exitX=0.5;exitY=1;exitDx=0;exitDy=0;entryX=1;entryY=0.5;entryDx=0;entryDy=0;" parent="1" source="416kvSQ-KiKdowSzH4s3-20" target="416kvSQ-KiKdowSzH4s3-10" edge="1">
          <mxGeometry width="50" height="50" relative="1" as="geometry">
            <mxPoint x="155" y="710" as="sourcePoint" />
            <mxPoint x="370" y="755" as="targetPoint" />
            <Array as="points">
              <mxPoint x="675" y="745" />
            </Array>
          </mxGeometry>
        </mxCell>
        <mxCell id="416kvSQ-KiKdowSzH4s3-34" value="HTTP&lt;br&gt;通信標準" style="shape=note;whiteSpace=wrap;html=1;backgroundOutline=1;darkOpacity=0.05;size=11;fillColor=#fff2cc;strokeColor=#d6b656;" parent="1" vertex="1">
          <mxGeometry x="510" y="722.5" width="90" height="45" as="geometry" />
        </mxCell>
        <mxCell id="416kvSQ-KiKdowSzH4s3-35" value="限流融斷代理&lt;div&gt;Istio waypoint&lt;/div&gt;" style="rounded=0;whiteSpace=wrap;html=1;" parent="1" vertex="1">
          <mxGeometry x="360" y="850" width="118" height="30" as="geometry" />
        </mxCell>
        <mxCell id="416kvSQ-KiKdowSzH4s3-37" value="Container 1&lt;br&gt;Java" style="rounded=1;whiteSpace=wrap;html=1;" parent="1" vertex="1">
          <mxGeometry x="99" y="1110" width="120" height="60" as="geometry" />
        </mxCell>
        <mxCell id="416kvSQ-KiKdowSzH4s3-38" value="Container 2&lt;br&gt;&lt;div&gt;Python&lt;/div&gt;" style="rounded=1;whiteSpace=wrap;html=1;" parent="1" vertex="1">
          <mxGeometry x="619" y="1110" width="120" height="60" as="geometry" />
        </mxCell>
        <mxCell id="416kvSQ-KiKdowSzH4s3-39" value="" style="rounded=0;whiteSpace=wrap;html=1;" parent="1" vertex="1">
          <mxGeometry x="259" y="1050" width="340" height="300" as="geometry" />
        </mxCell>
        <mxCell id="416kvSQ-KiKdowSzH4s3-40" value="註冊代理&lt;br&gt;Istio&amp;nbsp;&lt;span style=&quot;background-color: transparent; color: light-dark(rgb(0, 0, 0), rgb(255, 255, 255));&quot;&gt;Istiod&lt;/span&gt;" style="rounded=0;whiteSpace=wrap;html=1;" parent="1" vertex="1">
          <mxGeometry x="371" y="1125" width="116" height="30" as="geometry" />
        </mxCell>
        <mxCell id="416kvSQ-KiKdowSzH4s3-41" value="調用代理 &lt;br&gt;Istio waypoint" style="rounded=0;whiteSpace=wrap;html=1;" parent="1" vertex="1">
          <mxGeometry x="369" y="1220" width="118" height="30" as="geometry" />
        </mxCell>
        <mxCell id="416kvSQ-KiKdowSzH4s3-42" value="註冊中心&lt;br&gt;Nacos" style="whiteSpace=wrap;html=1;aspect=fixed;" parent="1" vertex="1">
          <mxGeometry x="399" y="950" width="60" height="60" as="geometry" />
        </mxCell>
        <mxCell id="416kvSQ-KiKdowSzH4s3-43" value="" style="endArrow=classic;html=1;rounded=0;entryX=0;entryY=0.5;entryDx=0;entryDy=0;exitX=0.5;exitY=0;exitDx=0;exitDy=0;" parent="1" source="416kvSQ-KiKdowSzH4s3-65" target="416kvSQ-KiKdowSzH4s3-42" edge="1">
          <mxGeometry width="50" height="50" relative="1" as="geometry">
            <mxPoint x="220" y="1060" as="sourcePoint" />
            <mxPoint x="250" y="1010" as="targetPoint" />
            <Array as="points">
              <mxPoint x="159" y="980" />
            </Array>
          </mxGeometry>
        </mxCell>
        <mxCell id="416kvSQ-KiKdowSzH4s3-44" value="" style="endArrow=classic;html=1;rounded=0;entryX=0.5;entryY=1;entryDx=0;entryDy=0;exitX=0.5;exitY=0;exitDx=0;exitDy=0;" parent="1" source="416kvSQ-KiKdowSzH4s3-40" target="416kvSQ-KiKdowSzH4s3-42" edge="1">
          <mxGeometry width="50" height="50" relative="1" as="geometry">
            <mxPoint x="229" y="1150" as="sourcePoint" />
            <mxPoint x="381" y="1150" as="targetPoint" />
          </mxGeometry>
        </mxCell>
        <mxCell id="416kvSQ-KiKdowSzH4s3-45" value="" style="endArrow=classic;html=1;rounded=0;entryX=1;entryY=0.5;entryDx=0;entryDy=0;exitX=0;exitY=0.5;exitDx=0;exitDy=0;dashed=1;" parent="1" source="416kvSQ-KiKdowSzH4s3-38" target="416kvSQ-KiKdowSzH4s3-40" edge="1">
          <mxGeometry width="50" height="50" relative="1" as="geometry">
            <mxPoint x="229" y="1150" as="sourcePoint" />
            <mxPoint x="381" y="1150" as="targetPoint" />
          </mxGeometry>
        </mxCell>
        <mxCell id="416kvSQ-KiKdowSzH4s3-48" value="去中心化調用Client" style="rounded=0;whiteSpace=wrap;html=1;fillColor=#dae8fc;strokeColor=#6c8ebf;" parent="1" vertex="1">
          <mxGeometry x="119" y="1160" width="70" height="30" as="geometry" />
        </mxCell>
        <mxCell id="416kvSQ-KiKdowSzH4s3-49" value="Http Client" style="rounded=0;whiteSpace=wrap;html=1;fillColor=#dae8fc;strokeColor=#6c8ebf;" parent="1" vertex="1">
          <mxGeometry x="649" y="1160" width="70" height="30" as="geometry" />
        </mxCell>
        <mxCell id="416kvSQ-KiKdowSzH4s3-50" value="" style="endArrow=classic;html=1;rounded=0;exitX=0.5;exitY=1;exitDx=0;exitDy=0;entryX=1;entryY=0.5;entryDx=0;entryDy=0;" parent="1" source="416kvSQ-KiKdowSzH4s3-48" target="416kvSQ-KiKdowSzH4s3-53" edge="1">
          <mxGeometry width="50" height="50" relative="1" as="geometry">
            <mxPoint x="167" y="1220" as="sourcePoint" />
            <mxPoint x="99" y="1270" as="targetPoint" />
            <Array as="points">
              <mxPoint x="154" y="1400" />
              <mxPoint x="860" y="1400" />
              <mxPoint x="860" y="1140" />
            </Array>
          </mxGeometry>
        </mxCell>
        <mxCell id="416kvSQ-KiKdowSzH4s3-51" value="HTTP&lt;br&gt;通信標準" style="shape=note;whiteSpace=wrap;html=1;backgroundOutline=1;darkOpacity=0.05;size=11;fillColor=#fff2cc;strokeColor=#d6b656;" parent="1" vertex="1">
          <mxGeometry x="229" y="1220" width="90" height="45" as="geometry" />
        </mxCell>
        <mxCell id="416kvSQ-KiKdowSzH4s3-52" value="Http Entry" style="rounded=0;whiteSpace=wrap;html=1;fillColor=#d5e8d4;strokeColor=#82b366;" parent="1" vertex="1">
          <mxGeometry x="39" y="1125" width="70" height="30" as="geometry" />
        </mxCell>
        <mxCell id="416kvSQ-KiKdowSzH4s3-53" value="Http Entry" style="rounded=0;whiteSpace=wrap;html=1;fillColor=#d5e8d4;strokeColor=#82b366;" parent="1" vertex="1">
          <mxGeometry x="729" y="1125" width="70" height="30" as="geometry" />
        </mxCell>
        <mxCell id="416kvSQ-KiKdowSzH4s3-54" value="" style="endArrow=classic;html=1;rounded=0;strokeColor=light-dark(#ee7c3f, #ededed);strokeWidth=3;exitX=0.5;exitY=1;exitDx=0;exitDy=0;entryX=0;entryY=0.5;entryDx=0;entryDy=0;" parent="1" source="416kvSQ-KiKdowSzH4s3-41" target="416kvSQ-KiKdowSzH4s3-52" edge="1">
          <mxGeometry width="50" height="50" relative="1" as="geometry">
            <mxPoint x="409" y="1400" as="sourcePoint" />
            <mxPoint x="-30" y="1150" as="targetPoint" />
            <Array as="points">
              <mxPoint x="427" y="1320" />
              <mxPoint x="270" y="1430" />
              <mxPoint x="-10" y="1430" />
              <mxPoint x="-10" y="1140" />
            </Array>
          </mxGeometry>
        </mxCell>
        <mxCell id="416kvSQ-KiKdowSzH4s3-57" value="" style="endArrow=classic;html=1;rounded=0;exitX=0.5;exitY=1;exitDx=0;exitDy=0;entryX=1;entryY=0.5;entryDx=0;entryDy=0;" parent="1" source="416kvSQ-KiKdowSzH4s3-49" target="416kvSQ-KiKdowSzH4s3-41" edge="1">
          <mxGeometry width="50" height="50" relative="1" as="geometry">
            <mxPoint x="164" y="1200" as="sourcePoint" />
            <mxPoint x="379" y="1245" as="targetPoint" />
            <Array as="points">
              <mxPoint x="684" y="1235" />
            </Array>
          </mxGeometry>
        </mxCell>
        <mxCell id="416kvSQ-KiKdowSzH4s3-58" value="HTTP&lt;br&gt;通信標準" style="shape=note;whiteSpace=wrap;html=1;backgroundOutline=1;darkOpacity=0.05;size=11;fillColor=#fff2cc;strokeColor=#d6b656;" parent="1" vertex="1">
          <mxGeometry x="519" y="1212.5" width="90" height="45" as="geometry" />
        </mxCell>
        <mxCell id="416kvSQ-KiKdowSzH4s3-59" value="限流融斷代理&lt;br&gt;Istio waypoint" style="rounded=0;whiteSpace=wrap;html=1;" parent="1" vertex="1">
          <mxGeometry x="369" y="1340" width="118" height="30" as="geometry" />
        </mxCell>
        <mxCell id="416kvSQ-KiKdowSzH4s3-60" value="K8s&lt;br&gt;Config&lt;br&gt;Map" style="whiteSpace=wrap;html=1;aspect=fixed;" parent="1" vertex="1">
          <mxGeometry x="450" y="460" width="60" height="60" as="geometry" />
        </mxCell>
        <mxCell id="416kvSQ-KiKdowSzH4s3-62" value="" style="endArrow=classic;html=1;rounded=0;entryX=0.5;entryY=1;entryDx=0;entryDy=0;exitX=0.5;exitY=0;exitDx=0;exitDy=0;" parent="1" source="416kvSQ-KiKdowSzH4s3-9" target="416kvSQ-KiKdowSzH4s3-60" edge="1">
          <mxGeometry width="50" height="50" relative="1" as="geometry">
            <mxPoint x="330" y="660" as="sourcePoint" />
            <mxPoint x="380" y="610" as="targetPoint" />
          </mxGeometry>
        </mxCell>
        <mxCell id="416kvSQ-KiKdowSzH4s3-65" value="去中心化註冊Client" style="rounded=0;whiteSpace=wrap;html=1;fillColor=#dae8fc;strokeColor=#6c8ebf;" parent="1" vertex="1">
          <mxGeometry x="124" y="1090" width="70" height="30" as="geometry" />
        </mxCell>
        <mxCell id="416kvSQ-KiKdowSzH4s3-66" value="&lt;font&gt;&lt;b&gt;基於 Istio&lt;br&gt;最終架構&lt;/b&gt;&lt;/font&gt;" style="ellipse;whiteSpace=wrap;html=1;fillColor=#0050ef;strokeColor=#001DBC;fontColor=#ffffff;fontSize=18;" parent="1" vertex="1">
          <mxGeometry x="69" y="450" width="141" height="70" as="geometry" />
        </mxCell>
        <mxCell id="416kvSQ-KiKdowSzH4s3-67" value="&lt;font&gt;&lt;b&gt;過渡架構&lt;/b&gt;&lt;/font&gt;" style="ellipse;whiteSpace=wrap;html=1;fillColor=#0050ef;strokeColor=#001DBC;fontColor=#ffffff;fontSize=18;" parent="1" vertex="1">
          <mxGeometry x="60" y="870" width="141" height="70" as="geometry" />
        </mxCell>
        <mxCell id="416kvSQ-KiKdowSzH4s3-69" value="把K8S 信息轉成 Nacos 服務信息註冊" style="shape=note;whiteSpace=wrap;html=1;backgroundOutline=1;darkOpacity=0.05;size=11;fillColor=#fff2cc;strokeColor=#d6b656;" parent="1" vertex="1">
          <mxGeometry x="435" y="1075" width="90" height="45" as="geometry" />
        </mxCell>
        <mxCell id="416kvSQ-KiKdowSzH4s3-70" value="需要細部調整路由規則. 如非 Java 服務在 Nacos 打 tag.&lt;br&gt;去中心化調用時對非 Java 服務不用做太多匹配規則" style="shape=note;whiteSpace=wrap;html=1;backgroundOutline=1;darkOpacity=0.05;size=11;fillColor=#fff2cc;strokeColor=#d6b656;" parent="1" vertex="1">
          <mxGeometry x="60" y="1200" width="90" height="150" as="geometry" />
        </mxCell>
        <mxCell id="416kvSQ-KiKdowSzH4s3-71" value="" style="endArrow=classic;html=1;rounded=0;entryX=0;entryY=0.75;entryDx=0;entryDy=0;exitX=0;exitY=0.5;exitDx=0;exitDy=0;strokeColor=light-dark(#4da3ff, #ededed);" parent="1" source="416kvSQ-KiKdowSzH4s3-41" target="416kvSQ-KiKdowSzH4s3-42" edge="1">
          <mxGeometry width="50" height="50" relative="1" as="geometry">
            <mxPoint x="439" y="1135" as="sourcePoint" />
            <mxPoint x="439" y="1020" as="targetPoint" />
            <Array as="points">
              <mxPoint x="340" y="1235" />
              <mxPoint x="340" y="1010" />
            </Array>
          </mxGeometry>
        </mxCell>
        <mxCell id="416kvSQ-KiKdowSzH4s3-56" value="轉換 Config Map" style="shape=parallelogram;perimeter=parallelogramPerimeter;whiteSpace=wrap;html=1;fixedSize=1;" parent="1" vertex="1">
          <mxGeometry x="319" y="1170" width="90" height="30" as="geometry" />
        </mxCell>
        <mxCell id="DtZ-GlPIIGEjoJHiLxdQ-1" value="入口 網關" style="rounded=0;whiteSpace=wrap;html=1;fillColor=#e6d0de;gradientColor=#d5739d;strokeColor=#996185;fontStyle=1;fontSize=16;verticalAlign=top;" vertex="1" parent="1">
          <mxGeometry x="153" y="360" width="550" height="40" as="geometry" />
        </mxCell>
        <mxCell id="DtZ-GlPIIGEjoJHiLxdQ-2" value="限流融斷" style="rounded=0;whiteSpace=wrap;html=1;" vertex="1" parent="1">
          <mxGeometry x="369" y="390" width="118" height="30" as="geometry" />
        </mxCell>
        <mxCell id="DtZ-GlPIIGEjoJHiLxdQ-4" value="域 網關" style="rounded=0;whiteSpace=wrap;html=1;fillColor=#dae8fc;gradientColor=#7ea6e0;strokeColor=#6c8ebf;verticalAlign=top;fontSize=16;fontStyle=1" vertex="1" parent="1">
          <mxGeometry x="540" y="420" width="230" height="40" as="geometry" />
        </mxCell>
        <mxCell id="DtZ-GlPIIGEjoJHiLxdQ-5" value="限流融斷" style="rounded=0;whiteSpace=wrap;html=1;" vertex="1" parent="1">
          <mxGeometry x="596" y="450" width="118" height="30" as="geometry" />
        </mxCell>
      </root>
    </mxGraphModel>
  </diagram>
</mxfile>
